<svg xmlns="http://www.w3.org/2000/svg" fill="none" viewBox="42.27111984282907 44.800000000000004 80.0589390962672 72.64" style="max-height: 500px" width="80.0589390962672" height="72.64">
<path fill="#F63BDF" d="M92 57.125H104.276C104.789 57.125 105.282 57.3621 105.646 57.784L111.859 65H92V57.125Z"/>
<path fill="#F63BDF" d="M113.159 66.5091C113.037 66.3674 112.828 66.4677 112.828 66.6682V70.0625H92V77.9375H112.828V81.3318C112.828 81.5323 113.037 81.6326 113.159 81.4909L119.609 74L113.159 66.5091Z"/>
<path fill="#F63BDF" d="M111.859 83H92V90.875H104.276C104.789 90.875 105.282 90.6379 105.646 90.216L111.859 83Z"/>
<path fill="#F6AF3B" d="M45 62C45 54.268 51.268 48 59 48H86C93.732 48 100 54.268 100 62V89C100 93.2019 98.1488 96.9715 95.2175 99.5377L95.5 99.5L80.5 112V103H59C51.268 103 45 96.732 45 89V62ZM72 90C63.081 90 55.6771 83.5131 54.2489 75H89.7512C88.3229 83.5131 80.919 90 72 90Z" clip-rule="evenodd" fill-rule="evenodd"/>
<rect fill="black" rx="3" height="30" width="59.3833" y="4" x="42"/>
<path fill="white" d="M53.3438 16C53.2969 15.6042 53.1068 15.2969 52.7734 15.0781C52.4401 14.8594 52.0313 14.75 51.5469 14.75C51.1927 14.75 50.8828 14.8073 50.6172 14.9219C50.3542 15.0365 50.1484 15.194 50 15.3945C49.8542 15.5951 49.7813 15.8229 49.7813 16.0781C49.7813 16.2917 49.832 16.4753 49.9336 16.6289C50.0378 16.7799 50.1706 16.9062 50.332 17.0078C50.4935 17.1068 50.6628 17.1888 50.8398 17.2539C51.0169 17.3164 51.1797 17.3672 51.3281 17.4062L52.1406 17.625C52.349 17.6797 52.5807 17.7552 52.8359 17.8516C53.0938 17.9479 53.3398 18.0794 53.5742 18.2461C53.8112 18.4102 54.0065 18.6211 54.1602 18.8789C54.3138 19.1367 54.3906 19.4531 54.3906 19.8281C54.3906 20.2604 54.2773 20.651 54.0508 21C53.8268 21.349 53.4987 21.6263 53.0664 21.832C52.6367 22.0378 52.1146 22.1406 51.5 22.1406C50.9271 22.1406 50.431 22.0482 50.0117 21.8633C49.5951 21.6784 49.2669 21.4206 49.0273 21.0898C48.7904 20.7591 48.6563 20.375 48.625 19.9375H49.625C49.651 20.2396 49.7526 20.4896 49.9297 20.6875C50.1094 20.8828 50.3359 21.0286 50.6094 21.125C50.8854 21.2187 51.1823 21.2656 51.5 21.2656C51.8698 21.2656 52.2018 21.2057 52.4961 21.0859C52.7904 20.9635 53.0234 20.7943 53.1953 20.5781C53.3672 20.3594 53.4531 20.1042 53.4531 19.8125C53.4531 19.5469 53.3789 19.3307 53.2305 19.1641C53.082 18.9974 52.8867 18.862 52.6445 18.7578C52.4023 18.6536 52.1406 18.5625 51.8594 18.4844L50.875 18.2031C50.25 18.0234 49.7552 17.7669 49.3906 17.4336C49.026 17.1003 48.8438 16.6641 48.8438 16.125C48.8438 15.6771 48.9648 15.2865 49.207 14.9531C49.4518 14.6172 49.7799 14.3568 50.1914 14.1719C50.6055 13.9844 51.0677 13.8906 51.5781 13.8906C52.0938 13.8906 52.5521 13.9831 52.9531 14.168C53.3542 14.3503 53.6719 14.6003 53.9062 14.918C54.1432 15.2357 54.2682 15.5964 54.2813 16H53.3438ZM58.374 22.125C57.7959 22.125 57.2972 21.9974 56.8779 21.7422C56.4613 21.4844 56.1396 21.125 55.9131 20.6641C55.6891 20.2005 55.5771 19.6615 55.5771 19.0469C55.5771 18.4323 55.6891 17.8906 55.9131 17.4219C56.1396 16.9505 56.4548 16.5833 56.8584 16.3203C57.2646 16.0547 57.7386 15.9219 58.2803 15.9219C58.5928 15.9219 58.9014 15.974 59.2061 16.0781C59.5107 16.1823 59.7881 16.3516 60.0381 16.5859C60.2881 16.8177 60.4873 17.125 60.6357 17.5078C60.7842 17.8906 60.8584 18.362 60.8584 18.9219V19.3125H56.2334V18.5156H59.9209C59.9209 18.1771 59.8532 17.875 59.7178 17.6094C59.585 17.3437 59.3949 17.1341 59.1475 16.9805C58.9027 16.8268 58.6136 16.75 58.2803 16.75C57.9131 16.75 57.5954 16.8411 57.3271 17.0234C57.0615 17.2031 56.8571 17.4375 56.7139 17.7266C56.5706 18.0156 56.499 18.3255 56.499 18.6562V19.1875C56.499 19.6406 56.5771 20.0247 56.7334 20.3398C56.8923 20.6523 57.1123 20.8906 57.3936 21.0547C57.6748 21.2161 58.0016 21.2969 58.374 21.2969C58.6162 21.2969 58.835 21.263 59.0303 21.1953C59.2282 21.125 59.3988 21.0208 59.542 20.8828C59.6852 20.7422 59.7959 20.5677 59.874 20.3594L60.7646 20.6094C60.6709 20.9115 60.5133 21.1771 60.292 21.4062C60.0706 21.6328 59.7972 21.8099 59.4717 21.9375C59.1462 22.0625 58.7803 22.125 58.374 22.125ZM64.6982 22.125C64.1357 22.125 63.6514 21.9922 63.2451 21.7266C62.8389 21.4609 62.5264 21.0951 62.3076 20.6289C62.0889 20.1628 61.9795 19.6302 61.9795 19.0312C61.9795 18.4219 62.0915 17.8841 62.3154 17.418C62.542 16.9492 62.8571 16.5833 63.2607 16.3203C63.667 16.0547 64.141 15.9219 64.6826 15.9219C65.1045 15.9219 65.4847 16 65.8232 16.1562C66.1618 16.3125 66.4391 16.5312 66.6553 16.8125C66.8714 17.0937 67.0055 17.4219 67.0576 17.7969H66.1357C66.0654 17.5234 65.9092 17.2812 65.667 17.0703C65.4274 16.8568 65.1045 16.75 64.6982 16.75C64.3389 16.75 64.0238 16.8437 63.7529 17.0312C63.4847 17.2161 63.2751 17.4779 63.124 17.8164C62.9756 18.1523 62.9014 18.5469 62.9014 19C62.9014 19.4635 62.9743 19.8672 63.1201 20.2109C63.2686 20.5547 63.4769 20.8216 63.7451 21.0117C64.016 21.2018 64.3337 21.2969 64.6982 21.2969C64.9378 21.2969 65.1553 21.2552 65.3506 21.1719C65.5459 21.0885 65.7113 20.9688 65.8467 20.8125C65.9821 20.6562 66.0785 20.4687 66.1357 20.25H67.0576C67.0055 20.6042 66.8766 20.9232 66.6709 21.207C66.4678 21.4883 66.1982 21.7122 65.8623 21.8789C65.529 22.043 65.141 22.125 64.6982 22.125ZM71.0146 16V16.7812H67.9053V16H71.0146ZM68.8115 14.5625H69.7334V20.2812C69.7334 20.5417 69.7712 20.737 69.8467 20.8672C69.9248 20.9948 70.0238 21.0807 70.1436 21.125C70.266 21.1667 70.3949 21.1875 70.5303 21.1875C70.6318 21.1875 70.7152 21.1823 70.7803 21.1719C70.8454 21.1589 70.8975 21.1484 70.9365 21.1406L71.124 21.9687C71.0615 21.9922 70.9743 22.0156 70.8623 22.0391C70.7503 22.0651 70.6084 22.0781 70.4365 22.0781C70.1761 22.0781 69.9209 22.0221 69.6709 21.9102C69.4235 21.7982 69.2178 21.6276 69.0537 21.3984C68.8923 21.1693 68.8115 20.8802 68.8115 20.5312V14.5625ZM72.4014 22V16H73.3232V22H72.4014ZM72.8701 15C72.6904 15 72.5355 14.9388 72.4053 14.8164C72.2777 14.694 72.2139 14.5469 72.2139 14.375C72.2139 14.2031 72.2777 14.056 72.4053 13.9336C72.5355 13.8112 72.6904 13.75 72.8701 13.75C73.0498 13.75 73.2035 13.8112 73.3311 13.9336C73.4613 14.056 73.5264 14.2031 73.5264 14.375C73.5264 14.5469 73.4613 14.694 73.3311 14.8164C73.2035 14.9388 73.0498 15 72.8701 15ZM77.4492 22.125C76.9076 22.125 76.4323 21.9961 76.0234 21.7383C75.6172 21.4805 75.2995 21.1198 75.0703 20.6562C74.8438 20.1927 74.7305 19.651 74.7305 19.0312C74.7305 18.4062 74.8438 17.8607 75.0703 17.3945C75.2995 16.9284 75.6172 16.5664 76.0234 16.3086C76.4323 16.0508 76.9076 15.9219 77.4492 15.9219C77.9909 15.9219 78.4648 16.0508 78.8711 16.3086C79.2799 16.5664 79.5977 16.9284 79.8242 17.3945C80.0534 17.8607 80.168 18.4062 80.168 19.0312C80.168 19.651 80.0534 20.1927 79.8242 20.6562C79.5977 21.1198 79.2799 21.4805 78.8711 21.7383C78.4648 21.9961 77.9909 22.125 77.4492 22.125ZM77.4492 21.2969C77.8607 21.2969 78.1992 21.1914 78.4648 20.9805C78.7305 20.7695 78.9271 20.4922 79.0547 20.1484C79.1823 19.8047 79.2461 19.4323 79.2461 19.0312C79.2461 18.6302 79.1823 18.2565 79.0547 17.9102C78.9271 17.5638 78.7305 17.2839 78.4648 17.0703C78.1992 16.8568 77.8607 16.75 77.4492 16.75C77.0378 16.75 76.6992 16.8568 76.4336 17.0703C76.168 17.2839 75.9714 17.5638 75.8438 17.9102C75.7161 18.2565 75.6523 18.6302 75.6523 19.0312C75.6523 19.4323 75.7161 19.8047 75.8438 20.1484C75.9714 20.4922 76.168 20.7695 76.4336 20.9805C76.6992 21.1914 77.0378 21.2969 77.4492 21.2969ZM82.4971 18.3906V22H81.5752V16H82.4658V16.9375H82.5439C82.6846 16.6328 82.8981 16.388 83.1846 16.2031C83.471 16.0156 83.8408 15.9219 84.2939 15.9219C84.7002 15.9219 85.0557 16.0052 85.3604 16.1719C85.665 16.3359 85.902 16.5859 86.0713 16.9219C86.2406 17.2552 86.3252 17.6771 86.3252 18.1875V22H85.4033V18.25C85.4033 17.7786 85.2809 17.4115 85.0361 17.1484C84.7913 16.8828 84.4554 16.75 84.0283 16.75C83.734 16.75 83.471 16.8138 83.2393 16.9414C83.0101 17.069 82.8291 17.2552 82.6963 17.5C82.5635 17.7448 82.4971 18.0417 82.4971 18.3906ZM93.9004 14V22H92.9316V15.0156H92.8848L90.9316 16.3125V15.3281L92.9316 14H93.9004Z"/>
</svg>